<?xml version="1.0" encoding="UTF-8" standalone="no"?>
<!DOCTYPE svg PUBLIC "-//W3C//DTD SVG 1.1//EN" "http://www.w3.org/Graphics/SVG/1.1/DTD/svg11.dtd">
<svg width="100%" height="100%" viewBox="0 0 1080 220" version="1.1" xmlns="http://www.w3.org/2000/svg" xmlns:xlink="http://www.w3.org/1999/xlink" xml:space="preserve" preserveAspectRatio="xMinYMin meet" shape-rendering="crispEdges" style="fill-rule:nonzero;clip-rule:evenodd;">
	<rect x="0" y="0" width="1080" height="220" style="fill-rule:nonzero;"/>
	<g style="fill:white;">
		<path d="M99.034,33.431l35.056,-0l0,153.138l-98.71,0l0,-107.012l63.654,-0l0,-46.126Z"/>
		<rect x="278.926" y="33.431" width="35.056" height="153.139"/>
		<path d="M369.333,33.431l35.056,-0l0,45.203l26.753,0l0,44.281l-26.753,0l0,63.654l-35.056,0l0,-63.654l-26.753,0l0,-43.358l26.753,-0l0,-46.126Z"/>
		<path d="M161.766,79.557l89.484,-0l0,52.584l-54.428,-0l-0,27.675l54.428,0l0,26.753l-89.484,0l-0,-107.012Z"/>
		<path d="M459.741,79.557l115.315,-0l-0,107.012l-43.359,0l0,-18.45l-28.598,-0l0,18.45l-43.358,0l-0,-107.012Z"/>
		<path d="M603.654,79.557l88.562,-0l0,52.584l-25.83,-0l-0,-26.754l-27.676,0l-0,81.182l-35.056,0l0,-107.012Z"/>
		<path d="M720.814,79.557l25.831,-0l0,53.506l28.598,0l0,-53.506l35.056,-0l0,107.012l-89.485,0l0,-107.012Z"/>
		<path d="M837.975,79.557l89.484,-0l0,107.012l-25.83,0l-0,-54.428l-28.598,-0l-0,54.428l-35.056,0l-0,-107.012Z"/>
		<path d="M955.135,79.557l89.485,-0l-0,52.584l-54.429,-0l-0,27.675l54.429,0l-0,26.753l-89.485,0l0,-107.012Z"/>
	</g>
	<path d="M495.719,106.31l16.605,-0l0,8.303l10.148,-0l0,-8.303l16.605,-0l0,25.831l-8.302,-0l-0,9.225l-9.225,-0l-0,8.302l-8.303,0l-0,-8.302l-9.225,-0l-0,-9.225l-8.303,-0l-0,-25.831Z" style="fill:rgb(237,34,39);"/>
</svg>
